<svg width="37" height="34" viewBox="0 0 37 34" fill="none" xmlns="http://www.w3.org/2000/svg">
<path d="M24.6117 1.57149C24.6593 1.41905 24.6759 1.25886 24.6607 1.10008C24.6454 0.941301 24.5985 0.787035 24.5227 0.64609C24.4469 0.505146 24.3437 0.380284 24.2189 0.278634C24.094 0.176983 23.9501 0.100535 23.7953 0.0536537C23.6405 0.00677242 23.4778 -0.00962367 23.3165 0.00540143C23.1553 0.0204265 22.9986 0.0665787 22.8555 0.141223C22.7123 0.215867 22.5855 0.317541 22.4823 0.44044C22.3791 0.563339 22.3014 0.705056 22.2538 0.8575L12.3883 32.4285C12.2922 32.7364 12.3242 33.0693 12.4773 33.3539C12.6304 33.6386 12.892 33.8517 13.2047 33.9464C13.5174 34.041 13.8554 34.0095 14.1445 33.8588C14.4336 33.708 14.65 33.4504 14.7462 33.1425L24.6117 1.57149ZM10.7408 7.64041C10.8556 7.75321 10.9467 7.8872 11.0089 8.03472C11.0711 8.18225 11.1031 8.34039 11.1031 8.50011C11.1031 8.65983 11.0711 8.81798 11.0089 8.9655C10.9467 9.11303 10.8556 9.24702 10.7408 9.35982L2.97912 17L10.7408 24.6402C10.9724 24.8682 11.1024 25.1774 11.1024 25.4999C11.1024 25.8223 10.9724 26.1316 10.7408 26.3596C10.5092 26.5876 10.1952 26.7157 9.86769 26.7157C9.54022 26.7157 9.22616 26.5876 8.9946 26.3596L0.362295 17.8597C0.247453 17.7469 0.156338 17.6129 0.0941692 17.4654C0.0320007 17.3179 0 17.1597 0 17C0 16.8403 0.0320007 16.6821 0.0941692 16.5346C0.156338 16.3871 0.247453 16.2531 0.362295 16.1403L8.9946 7.64041C9.10915 7.52733 9.24524 7.43761 9.39506 7.3764C9.54488 7.31518 9.70549 7.28367 9.86769 7.28367C10.0299 7.28367 10.1905 7.31518 10.3403 7.3764C10.4902 7.43761 10.6262 7.52733 10.7408 7.64041ZM26.2592 7.64041C26.1444 7.75321 26.0533 7.8872 25.9911 8.03472C25.9289 8.18225 25.8969 8.34039 25.8969 8.50011C25.8969 8.65983 25.9289 8.81798 25.9911 8.9655C26.0533 9.11303 26.1444 9.24702 26.2592 9.35982L34.0209 17L26.2592 24.6402C26.1446 24.7531 26.0536 24.8871 25.9915 25.0346C25.9295 25.1821 25.8976 25.3402 25.8976 25.4999C25.8976 25.6596 25.9295 25.8176 25.9915 25.9652C26.0536 26.1127 26.1446 26.2467 26.2592 26.3596C26.3739 26.4725 26.51 26.562 26.6598 26.6231C26.8096 26.6842 26.9702 26.7157 27.1323 26.7157C27.2945 26.7157 27.455 26.6842 27.6048 26.6231C27.7546 26.562 27.8907 26.4725 28.0054 26.3596L36.6377 17.8597C36.7525 17.7469 36.8437 17.6129 36.9058 17.4654C36.968 17.3179 37 17.1597 37 17C37 16.8403 36.968 16.6821 36.9058 16.5346C36.8437 16.3871 36.7525 16.2531 36.6377 16.1403L28.0054 7.64041C27.8908 7.52733 27.7548 7.43761 27.6049 7.3764C27.4551 7.31518 27.2945 7.28367 27.1323 7.28367C26.9701 7.28367 26.8095 7.31518 26.6597 7.3764C26.5098 7.43761 26.3738 7.52733 26.2592 7.64041Z" fill="#F4F4F4"/>
</svg>
