<svg width="31" height="31" viewBox="0 0 31 31" fill="none" xmlns="http://www.w3.org/2000/svg">
<path fill-rule="evenodd" clip-rule="evenodd" d="M10.3334 15.5H6.4274C6.04828 16.1567 5.46308 16.6699 4.76256 16.96C4.06204 17.2502 3.28535 17.3011 2.55295 17.1049C1.82055 16.9086 1.17337 16.4762 0.711781 15.8746C0.250195 15.2731 0 14.536 0 13.7778C0 13.0195 0.250195 12.2825 0.711781 11.6809C1.17337 11.0794 1.82055 10.6469 2.55295 10.4507C3.28535 10.2545 4.06204 10.3054 4.76256 10.5955C5.46308 10.8857 6.04828 11.3989 6.4274 12.0556H10.3334V3.44444C10.3334 2.53092 10.6963 1.65481 11.3422 1.00885C11.9882 0.362896 12.8643 0 13.7778 0H27.5556C28.4691 0 29.3452 0.362896 29.9911 1.00885C30.6371 1.65481 31 2.53092 31 3.44444V27.5556C31 28.4691 30.6371 29.3452 29.9911 29.9911C29.3452 30.6371 28.4691 31 27.5556 31H13.7778C12.8643 31 11.9882 30.6371 11.3422 29.9911C10.6963 29.3452 10.3334 28.4691 10.3334 27.5556V15.5ZM13.7778 15.5V27.5556H27.5556V3.44444H13.7778V12.0556H17.6838C18.0629 11.3989 18.6481 10.8857 19.3487 10.5955C20.0492 10.3054 20.8259 10.2545 21.5583 10.4507C22.2907 10.6469 22.9379 11.0794 23.3994 11.6809C23.861 12.2825 24.1112 13.0195 24.1112 13.7778C24.1112 14.536 23.861 15.2731 23.3994 15.8746C22.9379 16.4762 22.2907 16.9086 21.5583 17.1049C20.8259 17.3011 20.0492 17.2502 19.3487 16.96C18.6481 16.6699 18.0629 16.1567 17.6838 15.5H13.7778Z" fill="#F4F4F4"/>
</svg>
