<svg width="36" height="34" viewBox="0 0 36 34" fill="none" xmlns="http://www.w3.org/2000/svg">
<path d="M13.7019 33.7352C16.8494 32.4824 16.1598 29.0284 14.5684 26.845C12.9946 24.6079 10.8197 23.0688 8.62704 21.5834C7.06258 20.5854 5.66574 19.3408 4.48933 17.8966C3.99422 17.3061 2.98632 16.2144 4.01191 15.9996C5.05517 15.7848 6.85879 16.8228 7.77828 17.2166C9.38739 17.8966 10.9788 18.6841 12.4641 19.6147L14.2501 16.5723C11.4916 14.7289 7.9551 13.1003 4.66616 12.6171C2.79181 12.3308 0.811373 12.7245 0.174803 14.7826C-0.391037 16.5544 0.51077 18.3441 1.53636 19.74C3.95886 23.0151 7.72523 24.59 10.5367 27.4177C11.138 28.0083 11.8629 28.7062 12.2166 29.5295C12.5879 30.3169 12.4995 30.3706 11.6684 30.3706C9.4758 30.3706 6.73501 28.6346 4.94908 27.4893L3.16315 30.5317C5.86857 32.214 10.3953 34.8448 13.7019 33.7352ZM29.9875 9.53891L19.9615 19.6863H15.9122V15.588L25.9382 5.42269L29.9875 9.53891ZM35.9996 8.14298C35.9819 8.67988 35.4337 9.23467 34.8679 9.78947L30.4119 14.3173L28.8735 12.7603L33.471 8.12508L32.4277 7.06918L31.243 8.26825L27.1937 4.16992L30.9954 0.32214C31.4198 -0.10738 32.1094 -0.10738 32.5161 0.32214L35.0447 2.88136C35.4691 3.27509 35.4691 3.99095 35.0447 4.42047C34.6734 4.7963 34.3197 5.15423 34.3197 5.51217C34.2844 5.8701 34.638 6.26383 34.9917 6.56807C35.5044 7.10497 36.0172 7.60608 35.9996 8.14298Z" fill="#EBEBEB"/>
</svg>
