<svg width="34" height="42" viewBox="0 0 34 42" fill="none" xmlns="http://www.w3.org/2000/svg">
<path d="M12.5999 0C12.21 0 11.8361 0.154875 11.5604 0.430553C11.2848 0.706232 11.1299 1.08013 11.1299 1.47V35.07C11.1299 35.4599 11.2848 35.8338 11.5604 36.1095C11.8361 36.3851 12.21 36.54 12.5999 36.54C12.9898 36.54 13.3637 36.3851 13.6393 36.1095C13.915 35.8338 14.0699 35.4599 14.0699 35.07V19.74H32.1299C32.5198 19.74 32.8937 19.5851 33.1693 19.3094C33.445 19.0338 33.5999 18.6599 33.5999 18.27V1.47C33.5999 1.08013 33.445 0.706232 33.1693 0.430553C32.8937 0.154875 32.5198 0 32.1299 0H12.8099C12.7743 0.000107793 12.7387 0.00150872 12.7032 0.0042C12.6688 0.00158874 12.6344 0.000187872 12.5999 0V0Z" fill="#F4F4F4"/>
<path d="M7.56168 32.2526C3.1122 32.8818 0 34.3862 0 36.6001C0 39.5821 5.20002 42 12.6 42C20 42 25.2 39.5825 25.2 36.6001C25.2 34.3858 22.0878 32.8818 17.6387 32.2531L17.0222 33.3026C20.3759 33.7676 22.68 34.7458 22.68 35.8802C22.68 37.4707 18.1671 38.7601 12.6 38.7601C7.0329 38.7601 2.52 37.4707 2.52 35.8802C2.51958 34.7495 4.809 33.7726 8.17278 33.3056C7.9695 32.9545 7.76538 32.6042 7.56168 32.2526Z" fill="#F4F4F4"/>
</svg>
